<svg width="44" height="44" viewBox="0 0 44 44" fill="none" xmlns="http://www.w3.org/2000/svg">
<path d="M24.5 6.76738L24.5007 6.76879L27.7246 13.2166C27.7251 13.2176 27.7256 13.2187 27.7261 13.2197C28.0136 13.805 28.5102 14.3307 29.0483 14.7277C29.5878 15.1258 30.2369 15.4446 30.8782 15.5515L30.8786 15.5516L36.7265 16.5232C38.4672 16.8133 39.2845 17.5434 39.5114 18.2496C39.7379 18.954 39.5 20.0194 38.2463 21.2646L38.2445 21.2664L33.6978 25.813C33.2004 26.3104 32.8494 26.9978 32.6523 27.6861C32.4552 28.3748 32.3899 29.1425 32.543 29.8257L32.543 29.8257L32.5441 29.8307L33.8457 35.4585C34.3444 37.6227 33.9249 38.7393 33.3578 39.1527C32.7894 39.5671 31.5933 39.6257 29.6779 38.4943L24.1972 35.2498C23.5582 34.8712 22.7619 34.705 22.0067 34.705C21.2509 34.705 20.4528 34.8714 19.8077 35.2468L19.8077 35.2468L19.8028 35.2496L14.3211 38.4947L14.3204 38.4951C12.4179 39.6242 11.2208 39.5633 10.649 39.1461C10.0777 38.7292 9.6561 37.6102 10.1539 35.4591L10.1539 35.459L11.4555 29.8307L11.4556 29.8307L11.4567 29.8257C11.6098 29.1425 11.5445 28.3748 11.3473 27.6861C11.1503 26.9978 10.7992 26.3104 10.3018 25.813L5.75516 21.2664C4.50983 20.0211 4.27002 18.9544 4.49554 18.2482C4.72083 17.5427 5.53324 16.8132 7.27313 16.5232L13.1211 15.5516L13.1237 15.5511C13.7567 15.4436 14.4009 15.124 14.9367 14.7267C15.4716 14.3301 15.9679 13.8047 16.2553 13.2196L19.48 6.77019C19.4801 6.76998 19.4802 6.76977 19.4803 6.76957C20.306 5.12705 21.261 4.55713 21.9975 4.55713C22.7328 4.55713 23.6833 5.12553 24.5 6.76738Z" fill="#A7E1FC" stroke="#A7E1FC" stroke-width="1.5" stroke-linecap="round" stroke-linejoin="round"/>
<path d="M17.6711 21.1174C18.3588 21.1174 18.9162 20.5599 18.9162 19.8722C18.9162 19.1844 18.3588 18.627 17.6711 18.627C16.9834 18.627 16.4259 19.1844 16.4259 19.8722C16.4259 20.5599 16.9834 21.1174 17.6711 21.1174Z" fill="#0498DC"/>
<path d="M26.3879 21.1174C27.0756 21.1174 27.633 20.5599 27.633 19.8722C27.633 19.1844 27.0756 18.627 26.3879 18.627C25.7002 18.627 25.1427 19.1844 25.1427 19.8722C25.1427 20.5599 25.7002 21.1174 26.3879 21.1174Z" fill="#0498DC"/>
<path d="M17.0233 28.8105C17.0286 28.7873 17.03 28.7785 17.0321 28.7669L17.0381 28.7349L17.049 28.6767C17.0564 28.6389 17.0645 28.6039 17.0722 28.5682C17.0886 28.4987 17.1083 28.4308 17.1283 28.3638C17.1696 28.2321 17.2184 28.1029 17.2743 27.9767C17.3868 27.7252 17.5251 27.4859 17.6869 27.2628C18.017 26.8129 18.4293 26.4294 18.9019 26.1326C19.1363 25.9863 19.382 25.8588 19.6367 25.7515C19.8872 25.6476 20.1452 25.5623 20.4083 25.4966C20.9173 25.3704 21.4397 25.3062 21.9641 25.3056C22.4816 25.2999 22.998 25.3539 23.5032 25.4664L23.6965 25.5128C23.7607 25.5281 23.8249 25.5492 23.8891 25.5673C24.0173 25.6025 24.1441 25.6491 24.2711 25.6945C24.5264 25.79 24.7738 25.9056 25.0107 26.0403C25.2508 26.1766 25.4787 26.3333 25.6917 26.5088C25.905 26.686 26.1009 26.883 26.2768 27.0973C26.4521 27.3113 26.6042 27.5434 26.7304 27.7897C26.7941 27.9135 26.8502 28.0412 26.8984 28.1719C26.9216 28.2382 26.9448 28.3056 26.9652 28.3756C26.9751 28.4116 26.9849 28.4452 26.9944 28.4843L27.0081 28.543L27.0155 28.5754C27.0185 28.5879 27.0199 28.5956 27.0268 28.6202C27.0603 28.7076 27.0759 28.8009 27.0726 28.8945C27.0693 28.9881 27.0473 29.0801 27.0079 29.1651C26.9684 29.25 26.9123 29.3262 26.8429 29.3891C26.7735 29.4519 26.6922 29.5002 26.6037 29.5311C26.5153 29.562 26.4216 29.5748 26.3281 29.5688C26.2347 29.5628 26.1434 29.5381 26.0596 29.4961C25.9759 29.4542 25.9014 29.3959 25.8406 29.3247C25.7798 29.2534 25.7339 29.1707 25.7056 29.0814C25.7077 29.093 25.7042 29.0879 25.7022 29.0877C25.7001 29.0875 25.6971 29.0842 25.694 29.0819C25.691 29.0796 25.6825 29.0715 25.6755 29.0645L25.6354 29.0237C25.6069 28.9947 25.5784 28.9648 25.548 28.9354C25.4891 28.8758 25.4247 28.8176 25.361 28.7611C25.2333 28.6491 25.098 28.5461 24.9563 28.4526C24.8171 28.3602 24.6721 28.2771 24.5221 28.2036C24.3721 28.1314 24.2182 28.0674 24.0611 28.012L23.9424 27.9714L23.821 27.9355C23.7816 27.922 23.7396 27.9123 23.6983 27.9016C23.6571 27.891 23.6172 27.8784 23.5748 27.8703C23.4907 27.8525 23.4081 27.8319 23.3217 27.8179C23.2788 27.8103 23.2371 27.801 23.1935 27.7948L23.063 27.7755C22.7027 27.7259 22.3392 27.7027 21.9755 27.706C21.2363 27.7095 20.5497 27.8098 19.9422 28.0537C19.6357 28.1769 19.3465 28.3394 19.0818 28.537C18.9453 28.6398 18.8157 28.7515 18.6938 28.8712C18.6333 28.9322 18.5721 28.9945 18.5153 29.0585L18.4726 29.1062L18.4319 29.1526L18.3931 29.1971C18.3864 29.2045 18.3806 29.2103 18.3751 29.2161C18.3728 29.2188 18.3701 29.2211 18.3672 29.223C18.3649 29.223 18.3616 29.2286 18.363 29.2186C18.3089 29.3963 18.1865 29.5452 18.0227 29.6325C17.8589 29.7199 17.667 29.7386 17.4894 29.6845C17.3118 29.6305 17.1629 29.5081 17.0755 29.3442C16.9881 29.1804 16.9694 28.9886 17.0235 28.8109L17.0233 28.8105Z" fill="#0498DC"/>
</svg>
