<svg width="44" height="44" viewBox="0 0 44 44" fill="none" xmlns="http://www.w3.org/2000/svg">
<path d="M24.5 6.76738L24.5007 6.76879L27.7246 13.2166C27.7251 13.2176 27.7256 13.2187 27.7261 13.2197C28.0136 13.805 28.5102 14.3307 29.0483 14.7277C29.5878 15.1258 30.2369 15.4446 30.8782 15.5515L30.8786 15.5516L36.7265 16.5232C38.4672 16.8133 39.2845 17.5434 39.5114 18.2496C39.7379 18.954 39.5 20.0194 38.2463 21.2646L38.2445 21.2664L33.6978 25.813C33.2004 26.3104 32.8494 26.9978 32.6523 27.6861C32.4552 28.3748 32.3899 29.1425 32.543 29.8257L32.543 29.8257L32.5441 29.8307L33.8457 35.4585C34.3444 37.6227 33.9249 38.7393 33.3578 39.1527C32.7894 39.5671 31.5933 39.6257 29.6779 38.4943L24.1972 35.2498C23.5582 34.8712 22.7619 34.705 22.0067 34.705C21.2509 34.705 20.4528 34.8714 19.8077 35.2468L19.8077 35.2468L19.8028 35.2496L14.3211 38.4947L14.3204 38.4951C12.4179 39.6242 11.2208 39.5633 10.649 39.1461C10.0777 38.7292 9.6561 37.6102 10.1539 35.4591L10.1539 35.459L11.4555 29.8307L11.4556 29.8307L11.4567 29.8257C11.6098 29.1425 11.5445 28.3748 11.3473 27.6861C11.1503 26.9978 10.7992 26.3104 10.3018 25.813L5.75516 21.2664C4.50983 20.0211 4.27002 18.9544 4.49554 18.2482C4.72083 17.5427 5.53324 16.8132 7.27313 16.5232L13.1211 15.5516L13.1237 15.5511C13.7567 15.4436 14.4009 15.124 14.9367 14.7267C15.4716 14.3301 15.9679 13.8047 16.2553 13.2196L19.48 6.77019C19.4801 6.76998 19.4802 6.76977 19.4803 6.76957C20.306 5.12705 21.261 4.55713 21.9975 4.55713C22.7328 4.55713 23.6833 5.12553 24.5 6.76738Z" fill="#B5E9FF" stroke="#B5E9FF" stroke-width="1.5" stroke-linecap="round" stroke-linejoin="round"/>
<path d="M17.232 21.1174C17.9197 21.1174 18.4772 20.5599 18.4772 19.8722C18.4772 19.1844 17.9197 18.627 17.232 18.627C16.5443 18.627 15.9868 19.1844 15.9868 19.8722C15.9868 20.5599 16.5443 21.1174 17.232 21.1174Z" fill="#0498DC"/>
<path d="M26.6964 21.1174C27.3841 21.1174 27.9416 20.5599 27.9416 19.8722C27.9416 19.1844 27.3841 18.627 26.6964 18.627C26.0087 18.627 25.4512 19.1844 25.4512 19.8722C25.4512 20.5599 26.0087 21.1174 26.6964 21.1174Z" fill="#0498DC"/>
<path d="M16.7457 27.9174C16.9667 27.8605 17.1874 27.8167 17.4083 27.7745C17.6293 27.7322 17.85 27.6977 18.071 27.6645C18.5126 27.5991 18.9543 27.5502 19.396 27.5085C20.2795 27.4282 21.1629 27.3909 22.0464 27.3846C22.93 27.3784 23.8133 27.4065 24.6967 27.4765C24.9176 27.4939 25.1383 27.5137 25.3593 27.5382C25.5802 27.5626 25.801 27.5885 26.0219 27.6179C26.2429 27.6474 26.4636 27.6819 26.6845 27.7214C26.9055 27.7609 27.1262 27.8032 27.3472 27.8583C27.5012 27.8968 27.638 27.9857 27.7358 28.1109C27.8335 28.2361 27.8866 28.3904 27.8866 28.5492C27.8866 28.708 27.8335 28.8623 27.7358 28.9875C27.638 29.1127 27.5012 29.2016 27.3472 29.2401C27.1262 29.2952 26.9052 29.3383 26.6845 29.377C26.4638 29.4158 26.2429 29.4493 26.0219 29.4805C25.801 29.5117 25.5802 29.5373 25.3593 29.5602C25.1383 29.5831 24.9176 29.6045 24.6967 29.6222C23.8133 29.6919 22.9298 29.7193 22.0464 29.7138C21.1631 29.7082 20.2795 29.6705 19.396 29.5902C18.9543 29.5484 18.5126 29.4993 18.071 29.4342C17.85 29.4007 17.6291 29.3657 17.4083 29.3239C17.1876 29.2822 16.9667 29.2381 16.7457 29.181C16.6057 29.1448 16.4816 29.0631 16.3931 28.9487C16.3045 28.8344 16.2565 28.6938 16.2565 28.5492C16.2565 28.4046 16.3045 28.264 16.3931 28.1497C16.4816 28.0353 16.6057 27.9536 16.7457 27.9174Z" fill="#0498DC"/>
</svg>
