<svg width="44" height="44" viewBox="0 0 44 44" fill="none" xmlns="http://www.w3.org/2000/svg">
<path d="M24.5 6.76738L24.5007 6.76879L27.7246 13.2166C27.7251 13.2176 27.7256 13.2187 27.7261 13.2197C28.0136 13.805 28.5102 14.3307 29.0483 14.7277C29.5878 15.1258 30.2369 15.4446 30.8782 15.5515L30.8786 15.5516L36.7265 16.5232C38.4672 16.8133 39.2845 17.5434 39.5114 18.2496C39.7379 18.954 39.5 20.0194 38.2463 21.2646L38.2445 21.2664L33.6978 25.813C33.2004 26.3104 32.8494 26.9978 32.6523 27.6861C32.4552 28.3748 32.3899 29.1425 32.543 29.8257L32.543 29.8257L32.5441 29.8307L33.8457 35.4585C34.3444 37.6227 33.9249 38.7393 33.3578 39.1527C32.7894 39.5671 31.5933 39.6257 29.6779 38.4943L24.1972 35.2498C23.5582 34.8712 22.7619 34.705 22.0067 34.705C21.2509 34.705 20.4528 34.8714 19.8077 35.2468L19.8077 35.2468L19.8028 35.2496L14.3211 38.4947L14.3204 38.4951C12.4179 39.6242 11.2208 39.5633 10.649 39.1461C10.0777 38.7292 9.6561 37.6102 10.1539 35.4591L10.1539 35.459L11.4555 29.8307L11.4556 29.8307L11.4567 29.8257C11.6098 29.1425 11.5445 28.3748 11.3473 27.6861C11.1503 26.9978 10.7992 26.3104 10.3018 25.813L5.75516 21.2664C4.50983 20.0211 4.27002 18.9544 4.49554 18.2482C4.72083 17.5427 5.53324 16.8132 7.27313 16.5232L13.1211 15.5516L13.1237 15.5511C13.7567 15.4436 14.4009 15.124 14.9367 14.7267C15.4716 14.3301 15.9679 13.8047 16.2553 13.2196L19.48 6.77019C19.4801 6.76998 19.4802 6.76977 19.4803 6.76957C20.306 5.12705 21.261 4.55713 21.9975 4.55713C22.7328 4.55713 23.6833 5.12553 24.5 6.76738Z" fill="#ABE4FF" stroke="#ABE4FF" stroke-width="1.5" stroke-linecap="round" stroke-linejoin="round"/>
<path d="M17.9969 20.8886C18.6214 20.8886 19.1275 20.3823 19.1275 19.7578C19.1275 19.1332 18.6214 18.627 17.9969 18.627C17.3725 18.627 16.8663 19.1332 16.8663 19.7578C16.8663 20.3823 17.3725 20.8886 17.9969 20.8886Z" fill="#0498DC"/>
<path d="M25.9125 20.8886C26.5369 20.8886 27.0431 20.3823 27.0431 19.7578C27.0431 19.1332 26.5369 18.627 25.9125 18.627C25.2881 18.627 24.7819 19.1332 24.7819 19.7578C24.7819 20.3823 25.2881 20.8886 25.9125 20.8886Z" fill="#0498DC"/>
<path d="M17.4959 29.7148C17.1655 29.706 16.9717 29.3884 16.9717 28.5329C16.9717 25.6918 21.1387 25.6034 21.9485 25.6131C22.7242 25.6024 26.9388 25.6762 26.9388 28.5327C26.9388 29.3619 26.7567 29.6858 26.4446 29.713" fill="#0498DC"/>
</svg>
