<svg width="44" height="44" viewBox="0 0 44 44" fill="none" xmlns="http://www.w3.org/2000/svg">
<path d="M24.5 6.76738L24.5007 6.76879L27.7246 13.2166C27.7251 13.2176 27.7256 13.2185 27.726 13.2195C28.0135 13.8049 28.5101 14.3306 29.0483 14.7277C29.5878 15.1258 30.2369 15.4446 30.8782 15.5515L30.8786 15.5516L36.7265 16.5232C38.4672 16.8133 39.2845 17.5434 39.5114 18.2495C39.7379 18.954 39.5 20.0194 38.2463 21.2646L38.2445 21.2664L33.6978 25.813C33.2004 26.3104 32.8494 26.9978 32.6523 27.6861C32.4552 28.3748 32.3899 29.1425 32.543 29.8257L32.543 29.8257L32.5441 29.8307L33.8457 35.4585C34.3444 37.6227 33.9249 38.7393 33.3578 39.1527C32.7894 39.5671 31.5933 39.6257 29.6779 38.4943L24.1972 35.2498C24.1971 35.2498 24.197 35.2497 24.1969 35.2496C23.558 34.8711 22.7618 34.705 22.0067 34.705C21.2509 34.705 20.4528 34.8714 19.8077 35.2468L19.8077 35.2468L19.8028 35.2496L14.3211 38.4946L14.3204 38.4951C12.4179 39.6241 11.2208 39.5633 10.649 39.1461C10.0777 38.7292 9.6561 37.6101 10.1539 35.4591L10.1539 35.459L11.4555 29.8307L11.4556 29.8307L11.4567 29.8257C11.6098 29.1425 11.5445 28.3748 11.3473 27.6861C11.1503 26.9978 10.7992 26.3104 10.3018 25.813L5.75516 21.2664C4.50983 20.021 4.27002 18.9544 4.49554 18.2482C4.72083 17.5427 5.53324 16.8132 7.27313 16.5232L13.1211 15.5516L13.1237 15.5511C13.7567 15.4436 14.4009 15.124 14.9367 14.7267C15.4716 14.3301 15.9679 13.8047 16.2553 13.2196L19.48 6.77019C19.48 6.77 19.4801 6.7698 19.4802 6.76961C20.306 5.12706 21.261 4.55713 21.9975 4.55713C22.7328 4.55713 23.6833 5.12553 24.5 6.76738Z" fill="#A7E1FC" stroke="#A7E1FC" stroke-width="1.5" stroke-linecap="round" stroke-linejoin="round"/>
<path d="M17.8193 21.1174C18.507 21.1174 19.0645 20.5599 19.0645 19.8722C19.0645 19.1844 18.507 18.627 17.8193 18.627C17.1316 18.627 16.5741 19.1844 16.5741 19.8722C16.5741 20.5599 17.1316 21.1174 17.8193 21.1174Z" fill="#0498DC"/>
<path d="M26.2744 21.1174C26.9621 21.1174 27.5196 20.5599 27.5196 19.8722C27.5196 19.1844 26.9621 18.627 26.2744 18.627C25.5867 18.627 25.0292 19.1844 25.0292 19.8722C25.0292 20.5599 25.5867 21.1174 26.2744 21.1174Z" fill="#0498DC"/>
<path d="M26.8643 26.3555C26.8589 26.378 26.8576 26.3865 26.8554 26.398L26.8495 26.4292L26.8387 26.4857C26.8311 26.5223 26.823 26.556 26.8149 26.5906C26.7987 26.6581 26.7791 26.7237 26.7596 26.7887C26.7185 26.916 26.6702 27.0408 26.615 27.1626C26.5044 27.4054 26.3687 27.636 26.2103 27.8506C25.8871 28.2821 25.4856 28.649 25.0268 28.9323C24.7995 29.0711 24.5617 29.1922 24.3157 29.2942C24.0736 29.3929 23.8247 29.4737 23.5708 29.5359C23.0799 29.6554 22.5766 29.7157 22.0714 29.7158C21.5726 29.721 21.0748 29.6697 20.5875 29.5629L20.4011 29.5193C20.3391 29.5051 20.277 29.4847 20.2154 29.4676C20.1538 29.4505 20.0918 29.4334 20.0304 29.4109L19.8465 29.3466C19.5999 29.2557 19.3607 29.1457 19.1313 29.0175C18.8987 28.8877 18.6778 28.7383 18.4708 28.5707C18.2636 28.4009 18.0727 28.2121 17.9006 28.0069C17.8577 27.9556 17.8174 27.9016 17.7765 27.8495C17.7356 27.7973 17.6973 27.7416 17.6603 27.686C17.5859 27.5747 17.5177 27.4594 17.4559 27.3407C17.3931 27.2212 17.3379 27.098 17.2904 26.9717C17.2679 26.9077 17.2443 26.8425 17.2243 26.7748C17.2144 26.7397 17.2047 26.7073 17.1953 26.6693L17.1816 26.6125L17.1742 26.581C17.1712 26.5686 17.1699 26.5614 17.1629 26.5371C17.1028 26.3674 17.1127 26.1807 17.1902 26.0182C17.2678 25.8557 17.4067 25.7306 17.5765 25.6705C17.7463 25.6105 17.9329 25.6203 18.0955 25.6978C18.258 25.7754 18.383 25.9143 18.4431 26.0841C18.4409 26.0724 18.4445 26.0774 18.4463 26.0776C18.4481 26.0778 18.4512 26.0807 18.4539 26.083C18.4566 26.0852 18.4654 26.0927 18.4721 26.0992L18.5108 26.1378C18.5384 26.1653 18.5661 26.1938 18.5955 26.2217C18.6529 26.2786 18.7151 26.3341 18.7772 26.3876C18.9013 26.4939 19.0325 26.5916 19.17 26.6799C19.3054 26.7674 19.4461 26.8463 19.5913 26.9162C19.7372 26.9847 19.8867 27.0453 20.0392 27.0976C20.1941 27.1508 20.3517 27.1958 20.5113 27.2325C20.5929 27.2499 20.6732 27.269 20.7571 27.2822C20.7986 27.2894 20.8389 27.2984 20.8814 27.3047L21.008 27.3231C21.3572 27.37 21.7092 27.392 22.0615 27.389C22.4078 27.3897 22.7536 27.3633 23.0957 27.3099C23.2582 27.2844 23.4193 27.2508 23.5785 27.2092C23.7347 27.1676 23.886 27.117 24.0351 27.0612C24.332 26.9447 24.6128 26.7907 24.8705 26.6028C25.0028 26.5051 25.1286 26.399 25.2471 26.2851C25.306 26.2269 25.3654 26.1675 25.4207 26.1066L25.4621 26.0616L25.5016 26.0167L25.539 25.9744C25.5457 25.9672 25.5511 25.9618 25.5565 25.9564C25.5586 25.9538 25.5612 25.9516 25.5641 25.9499C25.5664 25.9499 25.5695 25.9447 25.568 25.9548C25.5943 25.8696 25.6371 25.7904 25.694 25.7218C25.7509 25.6531 25.8208 25.5963 25.8997 25.5547C25.9785 25.513 26.0648 25.4873 26.1536 25.479C26.2424 25.4707 26.3319 25.48 26.4172 25.5063C26.5024 25.5326 26.5816 25.5754 26.6502 25.6323C26.7189 25.6893 26.7756 25.7591 26.8173 25.838C26.8589 25.9168 26.8847 26.0031 26.893 26.0919C26.9013 26.1807 26.892 26.2703 26.8657 26.3555H26.8643Z" fill="#0498DC"/>
</svg>
