<svg width="624" height="328" viewBox="0 0 624 328" fill="none" xmlns="http://www.w3.org/2000/svg">
<path d="M57.4942 82.2529L5.36487 156.703L107.243 228.037L159.372 153.588L57.4942 82.2529Z" fill="#CBDAFC"/>
<path d="M31.021 155.697L65.315 106.72" stroke="#F9F9F9" stroke-miterlimit="10" stroke-linecap="round"/>
<path d="M38.661 161.047L50.356 144.346" stroke="#F9F9F9" stroke-miterlimit="10" stroke-linecap="round"/>
<path d="M51.655 170.146L85.949 121.169" stroke="#F9F9F9" stroke-miterlimit="10" stroke-linecap="round"/>
<path d="M59.295 175.496L93.589 126.519" stroke="#F9F9F9" stroke-miterlimit="10" stroke-linecap="round"/>
<path d="M66.936 180.845L83.004 157.897" stroke="#F9F9F9" stroke-miterlimit="10" stroke-linecap="round"/>
<path d="M175.558 113.961C175.558 113.961 175.258 60.8905 228.629 53.3195C282.001 45.7485 296.05 85.8405 355.538 60.5305C415.026 35.2205 466.007 24.7655 498.888 62.8375C531.769 100.91 519.078 202.437 421.3 230.559C323.522 258.681 285.731 228.369 204.545 257.816C152.061 276.852 102.441 278.066 82.395 252.047C52.687 213.487 76.626 172.729 110.95 164.653C145.273 156.577 162.904 153.836 175.558 113.961Z" fill="#50799A"/>
<path opacity="0.75" d="M366.699 55.9235V109.196H416.15V40.5195C400.642 43.5585 384.074 48.9885 366.699 55.9235Z" fill="url(#paint0_linear_1855_1404)"/>
<path opacity="0.75" d="M498.889 62.8375C495.509 58.9235 491.934 55.5305 488.181 52.6055L440.612 100.985L461.334 157.667L513.691 131.82C518.127 104.459 512.302 78.3685 498.889 62.8375Z" fill="url(#paint1_linear_1855_1404)"/>
<path d="M429.869 93.7743C435.325 80.5533 432.646 59.6523 432.646 59.6523" stroke="#F9F9F9" stroke-miterlimit="10" stroke-linecap="round"/>
<path d="M134.332 210.281C134.332 210.281 140.883 224.306 158.252 226.195" stroke="#F9F9F9" stroke-miterlimit="10" stroke-linecap="round"/>
<path d="M222.948 71.1873C222.948 71.1873 219.637 83.7163 227.497 91.4163" stroke="#F9F9F9" stroke-miterlimit="10" stroke-linecap="round"/>
<path d="M160.433 238.369C160.433 238.369 148.032 236.787 134.332 245.292" stroke="#F9F9F9" stroke-miterlimit="10" stroke-linecap="round"/>
<path d="M471.488 139.054C479.997 146.265 499.144 134.427 508.23 141.709C517.316 148.992 515.215 167.392 494.565 165.677C480.548 164.513 468.316 150.808 468.316 150.808L471.488 139.054Z" fill="url(#paint2_linear_1855_1404)"/>
<path d="M332.06 -8.84919e-05L242.561 15.7769L264.15 138.25L353.65 122.473L332.06 -8.84919e-05Z" fill="#CBDAFC"/>
<path d="M261.427 33.2016L320.308 22.8186" stroke="#F9F9F9" stroke-miterlimit="10" stroke-linecap="round"/>
<path d="M263.046 42.3864L283.125 38.8464" stroke="#F9F9F9" stroke-miterlimit="10" stroke-linecap="round"/>
<path d="M265.801 58.0075L324.682 47.6255" stroke="#F9F9F9" stroke-miterlimit="10" stroke-linecap="round"/>
<path d="M267.42 67.1936L326.302 56.8105" stroke="#F9F9F9" stroke-miterlimit="10" stroke-linecap="round"/>
<path d="M269.04 76.3786L327.921 65.9966" stroke="#F9F9F9" stroke-miterlimit="10" stroke-linecap="round"/>
<path opacity="0.75" d="M335.649 20.3015L298.481 28.0095L304.325 129.267L353.662 122.456L335.649 20.3015Z" fill="url(#paint3_linear_1855_1404)"/>
<path d="M270.66 85.5645L305.753 79.3765" stroke="#F9F9F9" stroke-miterlimit="10" stroke-linecap="round"/>
<path d="M401.403 29.8774H310.522V154.24H401.403V29.8774Z" fill="#CBDAFC"/>
<path d="M326.068 50.3254H385.858" stroke="#F9F9F9" stroke-miterlimit="10" stroke-linecap="round"/>
<path d="M326.068 59.6523H346.456" stroke="#F9F9F9" stroke-miterlimit="10" stroke-linecap="round"/>
<path d="M326.068 75.5144H385.858" stroke="#F9F9F9" stroke-miterlimit="10" stroke-linecap="round"/>
<path d="M326.068 84.8416H385.858" stroke="#F9F9F9" stroke-miterlimit="10" stroke-linecap="round"/>
<path d="M326.068 94.1694H385.858" stroke="#F9F9F9" stroke-miterlimit="10" stroke-linecap="round"/>
<path d="M326.068 103.496H361.702" stroke="#F9F9F9" stroke-miterlimit="10" stroke-linecap="round"/>
<path d="M577.874 113.058L519.456 43.4429L424.194 123.383L482.612 192.998L577.874 113.058Z" fill="#CBDAFC"/>
<path d="M513.773 68.5166L552.205 114.318" stroke="#F9F9F9" stroke-miterlimit="10" stroke-linecap="round"/>
<path d="M506.628 74.5115L519.733 90.1295" stroke="#F9F9F9" stroke-miterlimit="10" stroke-linecap="round"/>
<path d="M494.476 84.7075L532.908 130.51" stroke="#F9F9F9" stroke-miterlimit="10" stroke-linecap="round"/>
<path d="M487.331 90.7026L525.764 136.505" stroke="#F9F9F9" stroke-miterlimit="10" stroke-linecap="round"/>
<path d="M480.186 96.6985L518.618 142.499" stroke="#F9F9F9" stroke-miterlimit="10" stroke-linecap="round"/>
<path d="M473.041 102.694L495.947 129.992" stroke="#F9F9F9" stroke-miterlimit="10" stroke-linecap="round"/>
<path opacity="0.75" d="M424.177 123.403L525.764 71.5056L553.487 133.535L482.594 193.022L424.177 123.403Z" fill="url(#paint4_linear_1855_1404)"/>
<path d="M550.173 171.418L519.092 86.0176L402.228 128.55L433.309 213.951L550.173 171.418Z" fill="#CBDAFC"/>
<path d="M505.204 107.618L525.653 163.802" stroke="#F9F9F9" stroke-miterlimit="10" stroke-linecap="round"/>
<path d="M496.439 110.809L503.413 129.968" stroke="#F9F9F9" stroke-miterlimit="10" stroke-linecap="round"/>
<path d="M481.534 116.235L501.983 172.419" stroke="#F9F9F9" stroke-miterlimit="10" stroke-linecap="round"/>
<path d="M472.769 119.425L493.218 175.609" stroke="#F9F9F9" stroke-miterlimit="10" stroke-linecap="round"/>
<path d="M464.004 122.615L484.454 178.799" stroke="#F9F9F9" stroke-miterlimit="10" stroke-linecap="round"/>
<path d="M455.24 125.804L467.427 159.29" stroke="#F9F9F9" stroke-miterlimit="10" stroke-linecap="round"/>
<path d="M421.092 23.4255C422.348 23.4255 423.367 22.4069 423.367 21.1505C423.367 19.894 422.348 18.8755 421.092 18.8755C419.836 18.8755 418.817 19.894 418.817 21.1505C418.817 22.4069 419.836 23.4255 421.092 23.4255Z" stroke="#423F63" stroke-miterlimit="10" stroke-linecap="round" stroke-linejoin="round"/>
<path d="M225.223 27.4397C226.479 27.4397 227.498 26.4211 227.498 25.1646C227.498 23.9082 226.479 22.8896 225.223 22.8896C223.967 22.8896 222.948 23.9082 222.948 25.1646C222.948 26.4211 223.967 27.4397 225.223 27.4397Z" stroke="#423F63" stroke-miterlimit="10" stroke-linecap="round" stroke-linejoin="round"/>
<path d="M7.717 204.283C11.4267 204.283 14.434 201.275 14.434 197.566C14.434 193.856 11.4267 190.849 7.717 190.849C4.00731 190.849 1 193.856 1 197.566C1 201.275 4.00731 204.283 7.717 204.283Z" stroke="#423F63" stroke-miterlimit="10" stroke-linecap="round" stroke-linejoin="round"/>
<path d="M67.453 55.7585C67.453 53.5735 65.682 51.8025 63.497 51.8025C61.312 51.8025 59.541 53.5735 59.541 55.7585C59.541 57.9435 61.312 59.7145 63.497 59.7145C65.682 59.7145 67.453 57.9435 67.453 55.7585Z" stroke="#423F63" stroke-miterlimit="10" stroke-linecap="round" stroke-linejoin="round"/>
<path d="M464.087 16.7665C464.087 14.5815 462.316 12.8105 460.131 12.8105C457.946 12.8105 456.175 14.5815 456.175 16.7665C456.175 18.9515 457.946 20.7225 460.131 20.7225C462.316 20.7225 464.087 18.9515 464.087 16.7665Z" stroke="#423F63" stroke-miterlimit="10" stroke-linecap="round" stroke-linejoin="round"/>
<path d="M470.983 151.025C470.983 151.025 477.36 160.687 488.197 163.86C499.033 167.033 516.292 167.952 515.162 176.398C514.032 184.844 482.593 178.931 472.065 165.879C461.537 152.828 470.983 151.025 470.983 151.025Z" fill="url(#paint5_linear_1855_1404)"/>
<path d="M472.353 162.426C481.111 173.157 535.952 181.671 526.866 223.205C517.78 264.739 470.328 266.47 470.328 266.47L472.353 162.426Z" fill="url(#paint6_linear_1855_1404)"/>
<path d="M444.664 288.318C444.556 299.459 437.85 304.001 428.872 308.436C419.895 312.871 417.191 325.093 428.872 327.256C440.553 329.419 458.292 319.144 460.131 293.293L444.664 288.318Z" fill="url(#paint7_linear_1855_1404)"/>
<path d="M452.946 290.982C443.841 315.909 434.545 317.491 434.545 317.491" stroke="#F9F9F9" stroke-miterlimit="10" stroke-linecap="round"/>
<path d="M456.345 293.618C457.643 305.985 464.565 318.171 473.975 319.36C483.385 320.55 486.954 315.358 478.734 310.058C470.514 304.758 463.375 302.919 460.996 288.967L456.345 293.618Z" fill="url(#paint8_linear_1855_1404)"/>
<path d="M471.379 277.328C493.876 273.608 500.691 284.316 496.04 297.62C491.389 310.924 471.823 315.948 459.92 295.59L471.379 277.328Z" fill="url(#paint9_linear_1855_1404)"/>
<path d="M472.461 255.004C482.412 258.465 493.188 243.971 499.103 247.757C505.017 251.543 492.043 270.272 473.22 265.18L472.461 255.004Z" fill="url(#paint10_linear_1855_1404)"/>
<path d="M473.11 268.308C473.11 268.308 497.142 262.576 506.866 271.985C516.591 281.395 519.619 300.864 510.75 309.733C501.881 318.602 497.137 304.109 497.616 292.427C498.095 280.746 488.252 276.499 474.083 277.325L473.11 268.308Z" fill="url(#paint11_linear_1855_1404)"/>
<path d="M473.627 273.096C490.655 271.601 508.457 274.518 507.666 296.466" stroke="#F9F9F9" stroke-miterlimit="10" stroke-linecap="round"/>
<path d="M472.461 269.065C483.926 273.824 491.822 268.2 499.826 268.632C507.83 269.065 513.13 282.237 520.16 277.327C527.191 272.417 519.078 262.899 507.073 260.952C495.067 259.005 472.461 265.387 472.461 265.387V269.065Z" fill="url(#paint12_linear_1855_1404)"/>
<path d="M170.042 95.1416C166.473 84.0006 166.31 55.0096 176.712 40.9166C194.595 16.6886 220.553 26.7836 212.477 48.2996C202.572 74.6866 190.917 70.6246 191.998 90.9236L170.042 95.1416Z" fill="url(#paint13_linear_1855_1404)"/>
<path d="M180.797 93.0756C174.83 66.2826 196.589 44.7046 196.589 44.7046" stroke="#F9F9F9" stroke-miterlimit="10" stroke-linecap="round"/>
<path d="M158.253 137.54C153.638 117.35 113.546 94.7085 117.873 62.9815C122.199 31.2545 148.158 33.7055 156.234 57.6455C164.31 81.5855 158.253 137.54 158.253 137.54Z" fill="url(#paint14_linear_1855_1404)"/>
<path d="M137.105 64.4285C138.698 84.0835 154.597 98.4255 158.252 137.54" stroke="#F9F9F9" stroke-miterlimit="10" stroke-linecap="round"/>
<path d="M164.165 99.4675C169.789 85.9115 175.991 49.0645 158.577 48.3075C141.163 47.5505 164.165 99.4675 164.165 99.4675Z" fill="url(#paint15_linear_1855_1404)"/>
<path d="M155.44 141.002C150.573 124.994 142.136 112.026 125.912 105.693C109.688 99.3596 110.43 90.3876 120.071 90.3826C136.188 90.3736 156.306 114.719 155.44 141.002Z" fill="url(#paint16_linear_1855_1404)"/>
<path d="M157.676 204.601C155.369 187.295 149.888 161.337 121.911 154.414C93.934 147.491 89.318 125.715 99.702 111.726C110.085 97.7367 156.955 107.688 163.157 145.617C169.357 183.546 157.676 204.601 157.676 204.601Z" fill="url(#paint17_linear_1855_1404)"/>
<path d="M116.281 127.205C116.281 127.205 161.714 144.524 157.676 204.601" stroke="#F9F9F9" stroke-miterlimit="10" stroke-linecap="round"/>
<path d="M459.806 296.465H168.78C160.417 296.465 153.637 289.685 153.637 281.322V101.054C153.637 92.6914 160.417 85.9114 168.78 85.9114H459.806C468.169 85.9114 474.949 92.6914 474.949 101.054V281.323C474.949 289.686 468.169 296.465 459.806 296.465Z" fill="#00AEFF"/>
<path d="M320.35 282.909C320.35 279.564 317.638 276.852 314.293 276.852C310.948 276.852 308.236 279.564 308.236 282.909C308.236 286.254 310.948 288.966 314.293 288.966C317.638 288.966 320.35 286.254 320.35 282.909Z" fill="#00AEFF" stroke="#EDF2FE" stroke-width="1.0936" stroke-miterlimit="10" stroke-linecap="round" stroke-linejoin="round"/>
<path d="M175.558 97.7374C176.992 97.7374 178.154 96.5751 178.154 95.1414C178.154 93.7077 176.992 92.5454 175.558 92.5454C174.124 92.5454 172.962 93.7077 172.962 95.1414C172.962 96.5751 174.124 97.7374 175.558 97.7374Z" fill="#00AEFF" stroke="#EDF2FE" stroke-width="1.0936" stroke-miterlimit="10" stroke-linecap="round" stroke-linejoin="round"/>
<path d="M185.283 97.7374C186.717 97.7374 187.879 96.5751 187.879 95.1414C187.879 93.7077 186.717 92.5454 185.283 92.5454C183.849 92.5454 182.687 93.7077 182.687 95.1414C182.687 96.5751 183.849 97.7374 185.283 97.7374Z" fill="#00AEFF" stroke="#EDF2FE" stroke-width="1.0936" stroke-miterlimit="10" stroke-linecap="round" stroke-linejoin="round"/>
<path d="M318.313 94.0473C318.313 91.8273 316.513 90.0273 314.293 90.0273C312.073 90.0273 310.273 91.8273 310.273 94.0473C310.273 96.2673 312.073 98.0673 314.293 98.0673C316.513 98.0673 318.313 96.2673 318.313 94.0473Z" fill="#00AEFF" stroke="#EDF2FE" stroke-width="1.0936" stroke-miterlimit="10" stroke-linecap="round" stroke-linejoin="round"/>
<path d="M458.545 269.93L458.545 102.316L170.043 102.316L170.043 269.93L458.545 269.93Z" fill="#EDF2FE"/>
<mask id="mask0_1855_1404" style="mask-type:luminance" maskUnits="userSpaceOnUse" x="170" y="102" width="289" height="168">
<path d="M458.544 269.93L458.544 102.316L170.042 102.316L170.042 269.93L458.544 269.93Z" fill="white"/>
</mask>
<g mask="url(#mask0_1855_1404)">
<path d="M304.535 159.794H272.952V207.385H304.535V159.794Z" fill="#CBDAFC"/>
<path d="M300.136 168.014H277.35" stroke="#EDF2FE" stroke-width="1.0936" stroke-miterlimit="10" stroke-linecap="round" stroke-linejoin="round"/>
<path d="M300.136 176.397H277.35" stroke="#EDF2FE" stroke-width="1.0936" stroke-miterlimit="10" stroke-linecap="round" stroke-linejoin="round"/>
<path d="M300.136 184.78H277.35" stroke="#EDF2FE" stroke-width="1.0936" stroke-miterlimit="10" stroke-linecap="round" stroke-linejoin="round"/>
<path d="M285.426 193.162H277.35" stroke="#EDF2FE" stroke-width="1.0936" stroke-miterlimit="10" stroke-linecap="round" stroke-linejoin="round"/>
<path d="M381.732 159.794H350.149V207.385H381.732V159.794Z" fill="#CBDAFC"/>
<path d="M377.333 168.014H354.547" stroke="#EDF2FE" stroke-width="1.0936" stroke-miterlimit="10" stroke-linecap="round" stroke-linejoin="round"/>
<path d="M377.333 176.397H354.547" stroke="#EDF2FE" stroke-width="1.0936" stroke-miterlimit="10" stroke-linecap="round" stroke-linejoin="round"/>
<path d="M377.333 184.78H354.547" stroke="#EDF2FE" stroke-width="1.0936" stroke-miterlimit="10" stroke-linecap="round" stroke-linejoin="round"/>
<path d="M362.623 193.162H354.547" stroke="#EDF2FE" stroke-width="1.0936" stroke-miterlimit="10" stroke-linecap="round" stroke-linejoin="round"/>
<path d="M433.926 159.794H402.343V207.385H433.926V159.794Z" fill="#CBDAFC"/>
<path d="M429.527 168.014H406.741" stroke="#EDF2FE" stroke-width="1.0936" stroke-miterlimit="10" stroke-linecap="round" stroke-linejoin="round"/>
<path d="M429.527 176.397H406.741" stroke="#EDF2FE" stroke-width="1.0936" stroke-miterlimit="10" stroke-linecap="round" stroke-linejoin="round"/>
<path d="M429.527 184.78H406.741" stroke="#EDF2FE" stroke-width="1.0936" stroke-miterlimit="10" stroke-linecap="round" stroke-linejoin="round"/>
<path d="M414.817 193.162H406.741" stroke="#EDF2FE" stroke-width="1.0936" stroke-miterlimit="10" stroke-linecap="round" stroke-linejoin="round"/>
<path d="M486.119 159.794H454.536V207.385H486.119V159.794Z" fill="#CBDAFC"/>
<path d="M481.721 168.014H458.935" stroke="#EDF2FE" stroke-width="1.0936" stroke-miterlimit="10" stroke-linecap="round" stroke-linejoin="round"/>
<path d="M481.721 176.397H458.935" stroke="#EDF2FE" stroke-width="1.0936" stroke-miterlimit="10" stroke-linecap="round" stroke-linejoin="round"/>
<path d="M481.721 184.78H458.935" stroke="#EDF2FE" stroke-width="1.0936" stroke-miterlimit="10" stroke-linecap="round" stroke-linejoin="round"/>
<path d="M467.011 193.162H458.935" stroke="#EDF2FE" stroke-width="1.0936" stroke-miterlimit="10" stroke-linecap="round" stroke-linejoin="round"/>
<path d="M252.341 159.794H220.758V207.385H252.341V159.794Z" fill="#CBDAFC"/>
<path d="M247.942 168.014H225.156" stroke="#EDF2FE" stroke-width="1.0936" stroke-miterlimit="10" stroke-linecap="round" stroke-linejoin="round"/>
<path d="M247.942 176.397H225.156" stroke="#EDF2FE" stroke-width="1.0936" stroke-miterlimit="10" stroke-linecap="round" stroke-linejoin="round"/>
<path d="M240.515 184.78H225.156" stroke="#EDF2FE" stroke-width="1.0936" stroke-miterlimit="10" stroke-linecap="round" stroke-linejoin="round"/>
<path d="M200.147 159.794H168.564V207.385H200.147V159.794Z" fill="#CBDAFC"/>
<path d="M195.749 168.014H172.963" stroke="#EDF2FE" stroke-width="1.0936" stroke-miterlimit="10" stroke-linecap="round" stroke-linejoin="round"/>
<path d="M195.749 176.397H172.963" stroke="#EDF2FE" stroke-width="1.0936" stroke-miterlimit="10" stroke-linecap="round" stroke-linejoin="round"/>
<path d="M195.749 184.78H172.963" stroke="#EDF2FE" stroke-width="1.0936" stroke-miterlimit="10" stroke-linecap="round" stroke-linejoin="round"/>
</g>
<path d="M370.247 159.44C356.299 135.281 324.631 127.73 301.138 143.726C281.971 156.776 274.779 182.084 284.284 203.234C295.369 227.897 323.624 238.104 347.264 228.05L384.634 284.738C386.266 287.564 389.88 288.533 392.706 286.901C395.532 285.269 396.501 281.655 394.869 278.829L357.499 222.141C376.727 207.673 382.584 180.807 370.247 159.44Z" fill="#3A7EC1"/>
<path d="M349.362 219.866C329.359 231.415 303.69 224.536 292.142 204.534C280.594 184.532 287.471 158.863 307.474 147.314C327.477 135.765 353.145 142.643 364.694 162.646C376.242 182.648 369.365 208.317 349.362 219.866Z" fill="#D2DFFF"/>
<mask id="mask1_1855_1404" style="mask-type:luminance" maskUnits="userSpaceOnUse" x="286" y="141" width="85" height="85">
<path d="M349.362 219.866C329.359 231.415 303.69 224.536 292.142 204.534C280.594 184.532 287.471 158.863 307.474 147.314C327.477 135.765 353.145 142.643 364.694 162.646C376.242 182.648 369.365 208.317 349.362 219.866Z" fill="white"/>
</mask>
<g mask="url(#mask1_1855_1404)">
<path d="M315.159 150.52H266.103V213.488H315.159V150.52Z" fill="#ADC4FE"/>
<path d="M308.327 161.396H272.935" stroke="#EDF2FE" stroke-width="1.6405" stroke-miterlimit="10" stroke-linecap="round" stroke-linejoin="round"/>
<path d="M308.327 172.488H272.935" stroke="#EDF2FE" stroke-width="1.6405" stroke-miterlimit="10" stroke-linecap="round" stroke-linejoin="round"/>
<path d="M308.327 183.579H272.935" stroke="#EDF2FE" stroke-width="1.6405" stroke-miterlimit="10" stroke-linecap="round" stroke-linejoin="round"/>
</g>
<mask id="mask2_1855_1404" style="mask-type:luminance" maskUnits="userSpaceOnUse" x="286" y="141" width="85" height="85">
<path d="M349.362 219.866C329.359 231.415 303.69 224.536 292.142 204.534C280.594 184.532 287.471 158.863 307.474 147.314C327.477 135.765 353.145 142.643 364.694 162.646C376.242 182.648 369.365 208.317 349.362 219.866Z" fill="white"/>
</mask>
<g mask="url(#mask2_1855_1404)">
<path d="M394.826 150.52H345.77V213.488H394.826V150.52Z" fill="#ADC4FE"/>
<path d="M387.994 161.396H352.602" stroke="#EDF2FE" stroke-width="1.6405" stroke-miterlimit="10" stroke-linecap="round" stroke-linejoin="round"/>
<path d="M387.994 172.488H352.602" stroke="#EDF2FE" stroke-width="1.6405" stroke-miterlimit="10" stroke-linecap="round" stroke-linejoin="round"/>
<path d="M387.994 183.579H352.602" stroke="#EDF2FE" stroke-width="1.6405" stroke-miterlimit="10" stroke-linecap="round" stroke-linejoin="round"/>
<path d="M365.146 194.668H352.602" stroke="#EDF2FE" stroke-width="1.6405" stroke-miterlimit="10" stroke-linecap="round" stroke-linejoin="round"/>
</g>
<path d="M599.154 80.6993L538.177 115.905L562.764 158.491L623.741 123.285L599.154 80.6993Z" fill="#CBDAFC"/>
<path d="M552.136 119.5L580.058 103.379" stroke="#F9F9F9" stroke-miterlimit="10" stroke-linecap="round"/>
<path d="M557.234 128.33L568.883 121.605" stroke="#F9F9F9" stroke-miterlimit="10" stroke-linecap="round"/>
<path d="M586.828 123.017L603.787 113.226" stroke="#F9F9F9" stroke-miterlimit="10" stroke-linecap="round"/>
<path d="M562.332 137.16L572.953 131.028" stroke="#F9F9F9" stroke-miterlimit="10" stroke-linecap="round"/>
<defs>
<linearGradient id="paint0_linear_1855_1404" x1="372.304" y1="75.6318" x2="439.557" y2="74.445" gradientUnits="userSpaceOnUse">
<stop/>
<stop offset="0.628" stop-opacity="0"/>
</linearGradient>
<linearGradient id="paint1_linear_1855_1404" x1="489.135" y1="120.674" x2="432.959" y2="55.7949" gradientUnits="userSpaceOnUse">
<stop/>
<stop offset="0.628" stop-opacity="0"/>
</linearGradient>
<linearGradient id="paint2_linear_1855_1404" x1="461.264" y1="145.845" x2="500.561" y2="152.965" gradientUnits="userSpaceOnUse">
<stop offset="0.004" stop-color="#67B292"/>
<stop offset="1" stop-color="#7AC8A9"/>
</linearGradient>
<linearGradient id="paint3_linear_1855_1404" x1="324.419" y1="81.7827" x2="276.155" y2="5.56292" gradientUnits="userSpaceOnUse">
<stop/>
<stop offset="0.628" stop-opacity="0"/>
</linearGradient>
<linearGradient id="paint4_linear_1855_1404" x1="486.08" y1="136.33" x2="586.563" y2="69.0773" gradientUnits="userSpaceOnUse">
<stop/>
<stop offset="0.628" stop-opacity="0"/>
</linearGradient>
<linearGradient id="paint5_linear_1855_1404" x1="467.088" y1="165.678" x2="515.214" y2="165.678" gradientUnits="userSpaceOnUse">
<stop stop-color="#ADC4FE"/>
<stop offset="1" stop-color="#CBDAFC"/>
</linearGradient>
<linearGradient id="paint6_linear_1855_1404" x1="470.328" y1="214.447" x2="527.878" y2="214.447" gradientUnits="userSpaceOnUse">
<stop offset="0.004" stop-color="#60BEC8"/>
<stop offset="1" stop-color="#79D7DB"/>
</linearGradient>
<linearGradient id="paint7_linear_1855_1404" x1="456.661" y1="289.72" x2="428.155" y2="327.464" gradientUnits="userSpaceOnUse">
<stop offset="0.004" stop-color="#67B292"/>
<stop offset="1" stop-color="#7AC8A9"/>
</linearGradient>
<linearGradient id="paint8_linear_1855_1404" x1="456.345" y1="304.249" x2="483.326" y2="304.249" gradientUnits="userSpaceOnUse">
<stop offset="0.004" stop-color="#60BEC8"/>
<stop offset="1" stop-color="#79D7DB"/>
</linearGradient>
<linearGradient id="paint9_linear_1855_1404" x1="459.92" y1="292.917" x2="497.422" y2="292.917" gradientUnits="userSpaceOnUse">
<stop stop-color="#ADC4FE"/>
<stop offset="1" stop-color="#CBDAFC"/>
</linearGradient>
<linearGradient id="paint10_linear_1855_1404" x1="472.461" y1="256.586" x2="500.547" y2="256.586" gradientUnits="userSpaceOnUse">
<stop stop-color="#ADC4FE"/>
<stop offset="1" stop-color="#CBDAFC"/>
</linearGradient>
<linearGradient id="paint11_linear_1855_1404" x1="491.637" y1="280.223" x2="509.835" y2="296.047" gradientUnits="userSpaceOnUse">
<stop offset="0.004" stop-color="#67B292"/>
<stop offset="1" stop-color="#7AC8A9"/>
</linearGradient>
<linearGradient id="paint12_linear_1855_1404" x1="471.094" y1="265.254" x2="512.5" y2="269.737" gradientUnits="userSpaceOnUse">
<stop offset="0.004" stop-color="#67B292"/>
<stop offset="1" stop-color="#7AC8A9"/>
</linearGradient>
<linearGradient id="paint13_linear_1855_1404" x1="177.873" y1="100.221" x2="190.532" y2="55.1219" gradientUnits="userSpaceOnUse">
<stop offset="0.004" stop-color="#67B292"/>
<stop offset="1" stop-color="#7AC8A9"/>
</linearGradient>
<linearGradient id="paint14_linear_1855_1404" x1="157.655" y1="132.126" x2="140.644" y2="77.5331" gradientUnits="userSpaceOnUse">
<stop offset="0.004" stop-color="#60BEC8"/>
<stop offset="1" stop-color="#79D7DB"/>
</linearGradient>
<linearGradient id="paint15_linear_1855_1404" x1="161.037" y1="99.4679" x2="161.037" y2="48.2994" gradientUnits="userSpaceOnUse">
<stop stop-color="#ADC4FE"/>
<stop offset="1" stop-color="#CBDAFC"/>
</linearGradient>
<linearGradient id="paint16_linear_1855_1404" x1="113.197" y1="115.692" x2="155.467" y2="115.692" gradientUnits="userSpaceOnUse">
<stop stop-color="#ADC4FE"/>
<stop offset="1" stop-color="#CBDAFC"/>
</linearGradient>
<linearGradient id="paint17_linear_1855_1404" x1="161.406" y1="179.654" x2="120.791" y2="124.797" gradientUnits="userSpaceOnUse">
<stop offset="0.004" stop-color="#67B292"/>
<stop offset="1" stop-color="#7AC8A9"/>
</linearGradient>
</defs>
</svg>
